#!OML:ASF H:\MichaelJackson\Top Level 1\Subject 1\Session 1\male.ASF
:FULLY-SPECIFIED
:DEGREES
751
root 2.54942 11.3951 16.1712 -18.0745 86.5824 -41.2236
lowerback 35.0237 -0.682518 -3.28678
upperback 12.598 -0.861071 -9.68187
thorax -4.05034 0.497666 -8.26432
lowerneck -4.7565 -10.9564 -11.621
upperneck -6.86225 -13.8761 11.4115
head 0.352504 -6.7568 4.84158
rclavicle 4.92986e-014 8.66701e-014
rhumerus -61.346 32.8492 -73.9254
rradius 98.3924
rwrist -43.9771
rhand -28.5717 -31.0537
rfingers 7.12502
rthumb -1.93803 -421.025
lclavicle 4.92986e-014 8.66701e-014
lhumerus -23.1053 19.2929 66.1049
lradius 51.7348
lwrist 17.1304
lhand -40.2515 9.18719
lfingers 7.12502
lthumb -13.2102 38.7486
rfemur -101.422 -43.2011 30.4469
rtibia 95.2092
rfoot -18.997 -1.71475
rtoes -42.7138
lfemur -36.1445 15.541 33.9547
ltibia 34.4588
lfoot -10.31 8.40539
ltoes -33.2792
752
root 2.53969 11.3581 16.2436 -6.8475 86.1097 -29.9606
lowerback 35.1199 -0.889745 -3.23646
upperback 12.705 -1.10032 -9.65949
thorax -3.99787 0.384215 -8.18318
lowerneck -4.7709 -10.7353 -11.4995
upperneck -6.88977 -13.5803 10.8987
head 0.264062 -6.60483 4.69568
rclavicle 5.56597e-014 5.40694e-014
rhumerus -61.0238 33.7857 -72.9162
rradius 98.9727
rwrist -43.9862
rhand -28.3934 -31.2157
rfingers 7.12502
rthumb -1.76586 -421.188
lclavicle 5.56597e-014 5.40694e-014
lhumerus -23.3461 19.8336 65.847
lradius 51.053
lwrist 16.8055
lhand -40.1843 8.82411
lfingers 7.12502
lthumb -13.1454 38.3897
rfemur -102.34 -42.844 30.7963
rtibia 95.7937
rfoot -19.0252 -1.47147
rtoes -42.3453
lfemur -35.3752 15.2056 33.9274
ltibia 34.3463
lfoot -10.0444 9.10631
ltoes -33.0545
753
root 2.53215 11.3224 16.3165 1.47121 85.5381 -21.6029
lowerback 35.2208 -1.09823 -3.18595
upperback 12.8055 -1.34199 -9.62833
thorax -3.95377 0.268847 -8.0917
lowerneck -4.80142 -10.5222 -11.3835
upperneck -6.92013 -13.2943 10.3904
head 0.181124 -6.45678 4.5494
rclavicle -9.54166e-015 -7.4743e-014
rhumerus -60.6399 34.7279 -71.8802
rradius 99.4828
rwrist -43.8853
rhand -28.2472 -31.3072
rfingers 7.12502
rthumb -1.62462 -421.281
lclavicle -9.54166e-015 -7.4743e-014
lhumerus -23.5925 20.3728 65.5783
lradius 50.337
lwrist 16.4684
lhand -40.1219 8.43217
lfingers 7.12502
lthumb -13.0853 38.0017
rfemur -103.161 -42.4403 31.0615
rtibia 96.371
rfoot -19.092 -1.17436
rtoes -41.8398
lfemur -34.6027 14.8718 33.8893
ltibia 34.2112
lfoot -9.78814 9.79203
ltoes -32.8055
754
root 2.52673 11.288 16.389 7.55435 84.918 -15.4796
lowerback 35.3263 -1.31917 -3.10601
upperback 12.902 -1.59063 -9.59445
thorax -3.91769 0.150432 -8.01061
lowerneck -4.84285 -10.3188 -11.2718
upperneck -6.96506 -13.0204 9.89354
head 0.0999744 -6.31403 4.40531
rclavicle 1.59028e-015 5.64548e-014
rhumerus -60.1926 35.6492 -70.7934
rradius 99.9377
rwrist -43.707
rhand -28.1134 -31.2763
rfingers 7.12502
rthumb -1.4954 -421.251
lclavicle 1.59028e-015 5.64548e-014
lhumerus -23.8381 20.9084 65.3015
lradius 49.5923
lwrist 16.1392
lhand -40.0527 8.0542
lfingers 7.12502
lthumb -13.0186 37.628
rfemur -103.927 -42.0279 31.3045
rtibia 96.9362
rfoot -19.2089 -0.78575
rtoes -41.1851
lfemur -33.8341 14.5287 33.8485
ltibia 34.0532
lfoot -9.54198 10.4724
ltoes -32.5257
755
root 2.52317 11.255 16.4615 12.0778 84.2589 -10.9146
lowerback 35.4373 -1.53885 -3.00569
upperback 12.9904 -1.83323 -9.56312
thorax -3.89294 0.035086 -7.94522
lowerneck -4.89823 -10.1261 -11.1045
upperneck -7.01716 -12.7635 9.35616
head 0.0159076 -6.17984 4.239
rclavicle 9.54166e-015 1.98785e-014
rhumerus -59.7002 36.5329 -69.6491
rradius 100.363
rwrist -43.4681
rhand -27.984 -31.1729
rfingers 7.12502
rthumb -1.37043 -421.148
lclavicle 9.54166e-015 1.98785e-014
lhumerus -24.083 21.4173 65.0142
lradius 48.8273
lwrist 15.8303
lhand -39.9633 7.72472
lfingers 7.12502
lthumb -12.9324 37.304
rfemur -104.657 -41.6059 31.5516
rtibia 97.4876
rfoot -19.3757 -0.297907
rtoes -40.3712
lfemur -33.0502 14.1899 33.8038
ltibia 33.8685
lfoot -9.31244 11.1517
ltoes -32.2213
756
root 2.52123 11.224 16.5337 15.5398 83.5875 -7.41419
lowerback 35.5474 -1.76433 -2.86931
upperback 13.0734 -2.07282 -9.53752
thorax -3.87631 -0.0780099 -7.90619
lowerneck -4.82618 -9.93231 -10.9533
upperneck -7.08829 -12.547 8.53648
head -0.116441 -6.06111 4.41672
rclavicle -4.77083e-014 -4.77083e-015
rhumerus -59.1667 37.3451 -68.4514
rradius 100.755
rwrist -43.2065
rhand -27.8491 -31.0277
rfingers 7.12502
rthumb -1.24021 -421.004
lclavicle -4.77083e-014 -4.77083e-015
lhumerus -24.3192 21.9005 64.726
lradius 48.0494
lwrist 15.5349
lhand -39.8317 7.48175
lfingers 7.12502
lthumb -12.8056 37.069
rfemur -105.343 -41.1813 31.7905
rtibia 98.0252
rfoot -19.5846 0.241303
rtoes -39.4418
lfemur -32.2677 13.8392 33.7506
ltibia 33.6626
lfoot -9.09839 11.8387
ltoes -31.8681
757
root 2.52063 11.1945 16.6063 18.3381 82.8988 -4.58728
lowerback 35.6551 -1.97973 -2.732
upperback 13.1426 -2.30227 -9.51808
thorax -3.87344 -0.186673 -7.87755
lowerneck -4.86621 -9.75653 -10.7256
upperneck -7.18379 -12.3175 8.01278
head -0.219422 -5.94089 4.20956
rclavicle 0 -8.0309e-014
rhumerus -58.6197 38.0689 -67.2379
rradius 101.12
rwrist -42.9572
rhand -27.7176 -30.9516
rfingers 7.12502
rthumb -1.1132 -420.928
lclavicle 0 -8.0309e-014
lhumerus -24.5566 22.3548 64.4318
lradius 47.2716
lwrist 15.2441
lhand -39.6354 7.35316
lfingers 7.12502
lthumb -12.6163 36.9522
rfemur -106.001 -40.7436 32.0164
rtibia 98.5554
rfoot -19.8266 0.7896
rtoes -38.4414
lfemur -31.4799 13.4784 33.6795
ltibia 33.4351
lfoot -8.89857 12.5347
ltoes -31.4427
758
root 2.52157 11.1663 16.6795 20.677 82.2006 -2.23047
lowerback 35.7567 -2.18662 -2.58502
upperback 13.2 -2.52047 -9.51301
thorax -3.88218 -0.289641 -7.87326
lowerneck -4.87389 -9.58971 -10.4576
upperneck -7.31476 -12.1066 7.48842
head -0.337887 -5.83086 3.99776
rclavicle -1.27222e-014 -1.27222e-014
rhumerus -58.0484 38.7127 -66.0231
rradius 101.439
rwrist -42.7726
rhand -27.5797 -30.958
rfingers 7.12502
rthumb -0.980016 -420.935
lclavicle -1.27222e-014 -1.27222e-014
lhumerus -24.7881 22.7709 64.1266
lradius 46.5032
lwrist 14.9382
lhand -39.3898 7.36557
lfingers 7.12502
lthumb -12.3795 36.979
rfemur -106.664 -40.3218 32.2703
rtibia 99.082
rfoot -20.1005 1.33816
rtoes -37.423
lfemur -30.6921 13.0912 33.5897
ltibia 33.1889
lfoot -8.71382 13.2524
ltoes -30.9456
759
root 2.52371 11.1392 16.7535 22.7629 81.4953 -0.149101
lowerback 35.8445 -2.38137 -2.45361
upperback 13.2391 -2.73174 -9.51629
thorax -3.90531 -0.390429 -7.87163
lowerneck -4.84734 -9.4279 -10.1713
upperneck -7.47461 -11.9085 6.96754
head -0.468716 -5.72752 3.78715
rclavicle -9.54166e-015 2.38542e-014
rhumerus -57.4487 39.3172 -64.8166
rradius 101.72
rwrist -42.6944
rhand -27.4722 -31.1688
rfingers 7.12502
rthumb -0.876196 -421.147
lclavicle -9.54166e-015 2.38542e-014
lhumerus -25.0336 23.1703 63.8112
lradius 45.7611
lwrist 14.6034
lhand -39.0975 7.46862
lfingers 7.12502
lthumb -12.0977 37.0989
rfemur -107.275 -39.8637 32.4431
rtibia 99.606
rfoot -20.377 1.79726
rtoes -36.4501
lfemur -29.9152 12.678 33.4673
ltibia 32.9204
lfoot -8.54142 13.9901
ltoes -30.3516
760
root 2.52709 11.1138 16.8286 24.6847 80.7819 1.74514
lowerback 35.9071 -2.59386 -2.31152
upperback 13.2673 -2.96493 -9.56989
thorax -3.94035 -0.500296 -7.9221
lowerneck -4.80028 -9.26183 -9.87274
upperneck -7.64935 -11.7086 6.49539
head -0.602656 -5.62442 3.59354
rclavicle 1.59028e-014 1.04163e-013
rhumerus -56.8023 39.916 -63.6907
rradius 101.96
rwrist -42.7162
rhand -27.3978 -31.5921
rfingers 7.12502
rthumb -0.804302 -421.57
lclavicle 1.59028e-014 1.04163e-013
lhumerus -25.3035 23.5624 63.4236
lradius 45.0619
lwrist 14.2496
lhand -38.7898 7.63906
lfingers 7.12502
lthumb -11.801 37.2866
rfemur -107.852 -39.3795 32.5548
rtibia 100.125
rfoot -20.6543 2.19574
rtoes -35.5034
lfemur -29.1515 12.2376 33.3038
ltibia 32.6301
lfoot -8.36261 14.7429
ltoes -29.6244
761
root 2.53151 11.0906 16.9051 26.4018 80.0539 3.41569
lowerback 35.9493 -2.79387 -2.19721
upperback 13.2835 -3.1936 -9.63535
thorax -3.98088 -0.609167 -7.97168
lowerneck -4.73355 -9.09713 -9.589
upperneck -7.8349 -11.5128 6.06571
head -0.736822 -5.52364 3.41882
rclavicle -9.54166e-015 -1.82882e-014
rhumerus -56.1054 40.5318 -62.5981
rradius 102.172
rwrist -42.8311
rhand -27.3687 -32.2096
rfingers 7.12502
rthumb -0.776152 -422.188
lclavicle -9.54166e-015 -1.82882e-014
lhumerus -25.603 23.9616 63.0139
lradius 44.4149
lwrist 13.8833
lhand -38.5123 7.84976
lfingers 7.12502
lthumb -11.5334 37.5124
rfemur -108.357 -38.8349 32.5729
rtibia 100.631
rfoot -20.9177 2.50388
rtoes -34.5818
lfemur -28.3871 11.7656 33.1125
ltibia 32.3146
lfoot -8.17862 15.5027
ltoes -28.725
762
root 2.53699 11.0702 16.983 27.9221 79.3072 4.87525
lowerback 35.9731 -2.97927 -2.1188
upperback 13.2907 -3.41704 -9.70761
thorax -4.02298 -0.716927 -8.01089
lowerneck -4.67945 -8.93643 -9.3395
upperneck -7.99967 -11.3204 5.68305
head -0.854471 -5.4246 3.26467
rclavicle 4.29375e-014 1.66979e-014
rhumerus -55.3539 41.1775 -61.5294
rradius 102.372
rwrist -42.999
rhand -27.3729 -32.9105
rfingers 7.12502
rthumb -0.780271 -422.889
lclavicle 4.29375e-014 1.66979e-014
lhumerus -25.9351 24.3774 62.5898
lradius 43.8235
lwrist 13.5321
lhand -38.301 8.07942
lfingers 7.12502
lthumb -11.3296 37.7534
rfemur -108.795 -38.2334 32.5174
rtibia 101.118
rfoot -21.1591 2.74331
rtoes -33.6505
lfemur -27.6194 11.265 32.8914
ltibia 31.98
lfoot -7.97676 16.2688
ltoes -27.6287
763
root 2.54311 11.0533 17.0621 29.2688 78.5582 6.15323
lowerback 35.988 -3.1477 -2.07746
upperback 13.2912 -3.6313 -9.76694
thorax -4.06435 -0.82213 -8.01914
lowerneck -4.65166 -8.78311 -9.13157
upperneck -8.13357 -11.1343 5.33314
head -0.950863 -5.32828 3.12612
rclavicle -1.43125e-014 4.45278e-014
rhumerus -54.5554 41.8447 -60.4534
rradius 102.573
rwrist -43.1567
rhand -27.3993 -33.6266
rfingers 7.12502
rthumb -0.805785 -423.605
lclavicle -1.43125e-014 4.45278e-014
lhumerus -26.2946 24.8001 62.1833
lradius 43.2831
lwrist 13.2272
lhand -38.1777 8.30223
lfingers 7.12502
lthumb -11.2107 37.9827
rfemur -109.171 -37.5941 32.4107
rtibia 101.578
rfoot -21.374 2.93242
rtoes -32.6754
lfemur -26.8702 10.7519 32.6349
ltibia 31.6363
lfoot -7.74181 17.0122
ltoes -26.2884
764
root 2.54994 11.0394 17.1422 30.393 77.8129 7.20623
lowerback 36.001 -3.29113 -2.06822
upperback 13.2883 -3.82356 -9.79551
thorax -4.1003 -0.918906 -7.98446
lowerneck -4.66342 -8.64092 -8.98362
upperneck -8.22926 -10.957 5.01504
head -1.02076 -5.23544 3.0048
rclavicle -9.54166e-015 5.00937e-014
rhumerus -53.7279 42.4929 -59.353
rradius 102.771
rwrist -43.2545
rhand -27.3983 -34.1941
rfingers 7.12502
rthumb -0.804753 -424.172
lclavicle -9.54166e-015 5.00937e-014
lhumerus -26.6608 25.2461 61.8273
lradius 42.7788
lwrist 12.9647
lhand -38.1407 8.52293
lfingers 7.12502
lthumb -11.175 38.2053
rfemur -109.482 -36.9198 32.2705
rtibia 102.011
rfoot -21.5615 3.09248
rtoes -31.6028
lfemur -26.1441 10.2359 32.3604
ltibia 31.3013
lfoot -7.47567 17.7156
ltoes -24.6049
765
root 2.55728 11.0283 17.2227 31.3376 77.0842 8.08262
lowerback 36.0241 -3.40501 -2.08702
upperback 13.2808 -3.98667 -9.78407
thorax -4.13403 -1.00375 -7.90165
lowerneck -4.69664 -8.51516 -8.84261
upperneck -8.30664 -10.8008 4.67657
head -1.07937 -5.15245 2.87558
rclavicle -7.4743e-014 -1.4074e-013
rhumerus -52.8912 43.103 -58.205
rradius 102.965
rwrist -43.2635
rhand -27.3478 -34.5375
rfingers 7.12502
rthumb -0.756033 -424.516
lclavicle -7.4743e-014 -1.4074e-013
lhumerus -27.02 25.6862 61.5439
lradius 42.3045
lwrist 12.7567
lhand -38.1614 8.72916
lfingers 7.12502
lthumb -11.1949 38.4105
rfemur -109.749 -36.2395 32.1294
rtibia 102.419
rfoot -21.7304 3.24815
rtoes -30.4285
lfemur -25.4626 9.73019 32.0644
ltibia 30.9919
lfoot -7.18017 18.3653
ltoes -22.4929
